<svg xmlns:mydata="http://www.w3.org/2000/svg" mydata:contrastcolor="151f42" mydata:template="Contrast" mydata:presentation="2.5" mydata:layouttype="undefined" mydata:specialfontid="undefined" mydata:id1="095" mydata:id2="125" mydata:companyname="AJX" mydata:companytagline="" version="1.1" xmlns="http://www.w3.org/2000/svg" xmlns:xlink="http://www.w3.org/1999/xlink" viewBox="0 0 550 470" class="svg-primary-tile"><defs><linearGradient x1="172.7693" y1="235" x2="377.2307" y2="235" gradientUnits="userSpaceOnUse" id="color-1269343331"><stop offset="0" stop-color="#4568dc"></stop><stop offset="1" stop-color="#b06ab3"></stop></linearGradient></defs><g fill="url(#color-1269343331)" fill-rule="none" stroke="none" stroke-width="1" stroke-linecap="butt" stroke-linejoin="miter" stroke-miterlimit="10" stroke-dasharray="" stroke-dashoffset="0" font-family="none" font-weight="none" font-size="none" text-anchor="none" style="mix-blend-mode: normal"><g data-paper-data="{&quot;isGlobalGroup&quot;:true,&quot;bounds&quot;:{&quot;x&quot;:172.7692981671456,&quot;y&quot;:115.22425252104496,&quot;width&quot;:204.4614036657088,&quot;height&quot;:239.5514949579101}}"><g data-paper-data="{&quot;isPrimaryText&quot;:true}" fill-rule="nonzero"><path d="M250.68275,334.73244v-12.87095h-6.87761l-17.39052,-55.80686h-37.72858v12.67445h4.02831l-13.26395,43.13242h-6.6811v12.87095h31.24398v-12.87095h-7.66362l2.06328,-6.6811h20.14156l2.06328,6.6811h-9.33389v12.87095zM202.04825,303.3902l6.38635,-21.22233l6.4846,21.22233z" data-paper-data="{&quot;glyphName&quot;:&quot;A&quot;,&quot;glyphIndex&quot;:0,&quot;firstGlyphOfWord&quot;:true,&quot;word&quot;:1}"></path><path d="M254.12155,353.69498c1.57202,0.58951 3.34055,1.08077 5.20733,1.08077c20.23981,0 27.70693,-9.9234 27.70693,-27.31392v-48.53625h8.15488v-12.87095h-36.94257v12.87095h8.44963v48.53625c0,10.51291 -3.2423,14.14822 -8.15488,14.14822c-1.76853,0 -3.14405,-0.29475 -4.42132,-0.88426z" data-paper-data="{&quot;glyphName&quot;:&quot;J&quot;,&quot;glyphIndex&quot;:1,&quot;word&quot;:1}"></path><path d="M332.72277,334.73244v-12.67445h-8.74438l10.11991,-12.87095l2.06328,2.75104l7.46712,10.02165h-5.60034v12.7727h39.20235v-12.7727h-5.69859l-17.68527,-24.16987l14.83598,-18.96254h8.35138v-12.7727h-32.6195v12.7727h8.64613l-10.02165,13.06745l-9.62865,-13.06745h5.69859v-12.7727h-38.9076v12.7727h5.10908l17.78352,24.46463l-14.44297,18.76604h-8.54788v12.67445z" data-paper-data="{&quot;glyphName&quot;:&quot;X&quot;,&quot;glyphIndex&quot;:2,&quot;lastGlyphOfWord&quot;:true,&quot;word&quot;:1}"></path></g><g data-paper-data="{&quot;isIcon&quot;:&quot;true&quot;,&quot;iconType&quot;:&quot;icon&quot;,&quot;rawIconId&quot;:&quot;984467&quot;,&quot;selectedEffects&quot;:{&quot;container&quot;:&quot;&quot;,&quot;transformation&quot;:&quot;&quot;,&quot;pattern&quot;:&quot;&quot;},&quot;isDetailed&quot;:false,&quot;fillRule&quot;:&quot;evenodd&quot;,&quot;bounds&quot;:{&quot;x&quot;:215.20700585949663,&quot;y&quot;:115.22425252104496,&quot;width&quot;:119.58598828100673,&quot;height&quot;:119.58452933194975},&quot;iconStyle&quot;:&quot;standalone&quot;,&quot;suitableAsStandaloneIcon&quot;:true}" fill-rule="evenodd"><path d="M288.12529,128.34954c0,3.62443 -1.28142,6.71811 -3.84425,9.28104c-2.56293,2.56284 -5.65661,3.84425 -9.28104,3.84425c-3.62443,0 -6.71811,-1.28142 -9.28104,-3.84425c-2.56284,-2.56293 -3.84425,-5.65661 -3.84425,-9.28104c0,-3.62443 1.28142,-6.71811 3.84425,-9.28104c2.56293,-2.56284 5.65661,-3.84425 9.28104,-3.84425c3.62443,0 6.71811,1.28142 9.28104,3.84425c2.56284,2.56293 3.84425,5.65661 3.84425,9.28104zM311.45914,128.34954c0,2.61806 -0.92563,4.85271 -2.77688,6.70396c-1.85125,1.85125 -4.0859,2.77688 -6.70396,2.77688c-2.61806,0 -4.85271,-0.92563 -6.70396,-2.77688c-1.85125,-1.85125 -2.77688,-4.0859 -2.77688,-6.70396c0,-2.61806 0.92563,-4.85271 2.77688,-6.70396c1.85125,-1.85125 4.0859,-2.77688 6.70396,-2.77688c2.61806,0 4.85271,0.92563 6.70396,2.77688c1.85125,1.85125 2.77688,4.0859 2.77688,6.70396zM257.49961,128.34954c0,2.61767 -0.92548,4.85198 -2.77643,6.70294c-1.85096,1.85096 -4.08527,2.77643 -6.70294,2.77643c-2.61767,0 -4.85198,-0.92548 -6.70294,-2.77643c-1.85096,-1.85096 -2.77643,-4.08527 -2.77643,-6.70294c0,-2.61767 0.92548,-4.85198 2.77643,-6.70294c1.85096,-1.85096 4.08527,-2.77643 6.70294,-2.77643c2.61767,0 4.85198,0.92548 6.70294,2.77643c1.85096,1.85096 2.77643,4.08527 2.77643,6.70294zM234.16722,128.34954c0,3.88995 -1.94498,5.83492 -5.83492,5.83492c-3.88995,0 -5.83492,-1.94498 -5.83492,-5.83492c0,-3.88995 1.94498,-5.83492 5.83492,-5.83492c3.88995,0 5.83492,1.94498 5.83492,5.83492zM321.6677,134.18301c-3.88898,0 -5.83346,-1.94449 -5.83346,-5.83346c0,-3.88898 1.94449,-5.83346 5.83346,-5.83346c3.88898,0 5.83346,1.94449 5.83346,5.83346c0,3.88898 -1.94449,5.83346 -5.83346,5.83346zM328.37166,154.74144c-1.85125,1.85125 -4.0859,2.77688 -6.70396,2.77688c-2.61806,0 -4.85271,-0.92563 -6.70396,-2.77688c-1.85125,-1.85125 -2.77688,-4.0859 -2.77688,-6.70396c0,-2.61806 0.92563,-4.85271 2.77688,-6.70396c1.85125,-1.85125 4.0859,-2.77688 6.70396,-2.77688c2.61806,0 4.85271,0.92563 6.70396,2.77688c1.85125,1.85125 2.77688,4.0859 2.77688,6.70396c0,2.61806 -0.92563,4.85271 -2.77688,6.70396zM237.81168,148.03748c0,2.61767 -0.92548,4.85198 -2.77643,6.70294c-1.85096,1.85096 -4.08527,2.77643 -6.70294,2.77643c-2.61767,0 -4.85198,-0.92548 -6.70294,-2.77643c-1.85096,-1.85096 -2.77643,-4.08527 -2.77643,-6.70294c0,-2.61767 0.92548,-4.85198 2.77643,-6.70294c1.85096,-1.85096 4.08527,-2.77643 6.70294,-2.77643c2.61767,0 4.85198,0.92548 6.70294,2.77643c1.85096,1.85096 2.77643,4.08527 2.77643,6.70294zM304.16732,151.68194c0,3.88995 -1.94498,5.83492 -5.83492,5.83492c-3.88995,0 -5.83492,-1.94498 -5.83492,-5.83492c0,-3.88995 1.94498,-5.83492 5.83492,-5.83492c3.88995,0 5.83492,1.94498 5.83492,5.83492zM257.49815,151.68194c0,3.88898 -1.94449,5.83346 -5.83346,5.83346c-3.88898,0 -5.83346,-1.94449 -5.83346,-5.83346c0,-3.88898 1.94449,-5.83346 5.83346,-5.83346c3.88898,0 5.83346,1.94449 5.83346,5.83346zM284.47938,155.32931c0,2.61767 -0.92548,4.85198 -2.77643,6.70294c-1.85096,1.85096 -4.08527,2.77643 -6.70294,2.77643c-2.61767,0 -4.85198,-0.92548 -6.70294,-2.77643c-1.85096,-1.85096 -2.77643,-4.08527 -2.77643,-6.70294c0,-2.61767 0.92548,-4.85198 2.77643,-6.70294c1.85096,-1.85096 4.08527,-2.77643 6.70294,-2.77643c2.61767,0 4.85198,0.92548 6.70294,2.77643c1.85096,1.85096 2.77643,4.08527 2.77643,6.70294zM241.45759,175.01725c0,3.62443 -1.28142,6.71811 -3.84425,9.28104c-2.56293,2.56284 -5.65661,3.84425 -9.28104,3.84425c-3.62443,0 -6.71811,-1.28142 -9.28104,-3.84425c-2.56284,-2.56293 -3.84425,-5.65661 -3.84425,-9.28104c0,-3.62443 1.28142,-6.71811 3.84425,-9.28104c2.56293,-2.56284 5.65661,-3.84425 9.28104,-3.84425c3.62443,0 6.71811,1.28142 9.28104,3.84425c2.56284,2.56293 3.84425,5.65661 3.84425,9.28104zM334.79299,175.01725c0,3.62443 -1.28142,6.71811 -3.84425,9.28104c-2.56293,2.56284 -5.65661,3.84425 -9.28104,3.84425c-3.62443,0 -6.71811,-1.28142 -9.28104,-3.84425c-2.56284,-2.56293 -3.84425,-5.65661 -3.84425,-9.28104c0,-3.62443 1.28142,-6.71811 3.84425,-9.28104c2.56293,-2.56284 5.65661,-3.84425 9.28104,-3.84425c3.62443,0 6.71811,1.28142 9.28104,3.84425c2.56284,2.56293 3.84425,5.65661 3.84425,9.28104zM264.78998,175.01725c0,2.61767 -0.92548,4.85198 -2.77643,6.70294c-1.85096,1.85096 -4.08527,2.77643 -6.70294,2.77643c-2.61767,0 -4.85198,-0.92548 -6.70294,-2.77643c-1.85096,-1.85096 -2.77643,-4.08527 -2.77643,-6.70294c0,-2.61767 0.92548,-4.85198 2.77643,-6.70294c1.85096,-1.85096 4.08527,-2.77643 6.70294,-2.77643c2.61767,0 4.85198,0.92548 6.70294,2.77643c1.85096,1.85096 2.77643,4.08527 2.77643,6.70294zM304.16732,175.01725c0,2.61767 -0.92548,4.85198 -2.77643,6.70294c-1.85096,1.85096 -4.08527,2.77643 -6.70294,2.77643c-2.61767,0 -4.85198,-0.92548 -6.70294,-2.77643c-1.85096,-1.85096 -2.77643,-4.08527 -2.77643,-6.70294c0,-2.61767 0.92548,-4.85198 2.77643,-6.70294c1.85096,-1.85096 4.08527,-2.77643 6.70294,-2.77643c2.61767,0 4.85198,0.92548 6.70294,2.77643c1.85096,1.85096 2.77643,4.08527 2.77643,6.70294zM280.83346,175.01433c0,3.88898 -1.94449,5.83346 -5.83346,5.83346c-3.88898,0 -5.83346,-1.94449 -5.83346,-5.83346c0,-3.88898 1.94449,-5.83346 5.83346,-5.83346c3.88898,0 5.83346,1.94449 5.83346,5.83346zM281.7025,201.40681c-1.85135,1.85086 -4.08551,2.77629 -6.7025,2.77629c-2.6165,0 -4.85086,-0.92533 -6.70309,-2.776c-1.85281,-1.85115 -2.77921,-4.08464 -2.77921,-6.70046c0,-2.61893 0.92635,-4.85427 2.77906,-6.70601c1.85174,-1.85086 4.08615,-2.77629 6.70323,-2.77629c2.61757,0 4.85179,0.92553 6.70265,2.77658c1.85115,1.85144 2.77673,4.08668 2.77673,6.70571c0,2.61602 -0.92563,4.84941 -2.77688,6.70017zM304.16732,198.34964c0,3.88995 -1.94498,5.83492 -5.83492,5.83492c-3.88995,0 -5.83492,-1.94498 -5.83492,-5.83492c0,-3.88995 1.94498,-5.83492 5.83492,-5.83492c3.88995,0 5.83492,1.94498 5.83492,5.83492zM257.49815,198.34964c0,3.88898 -1.94449,5.83346 -5.83346,5.83346c-3.88898,0 -5.83346,-1.94449 -5.83346,-5.83346c0,-3.88898 1.94449,-5.83346 5.83346,-5.83346c3.88898,0 5.83346,1.94449 5.83346,5.83346zM331.14854,201.99701c0,2.61806 -0.92563,4.85271 -2.77688,6.70396c-1.85125,1.85125 -4.0859,2.77688 -6.70396,2.77688c-2.61806,0 -4.85271,-0.92563 -6.70396,-2.77688c-1.85125,-1.85125 -2.77688,-4.0859 -2.77688,-6.70396c0,-2.61806 0.92563,-4.85271 2.77688,-6.70396c1.85125,-1.85125 4.0859,-2.77688 6.70396,-2.77688c2.61806,0 4.85271,0.92563 6.70396,2.77688c1.85125,1.85125 2.77688,4.0859 2.77688,6.70396zM237.81168,201.99701c0,2.61767 -0.92548,4.85198 -2.77643,6.70294c-1.85096,1.85096 -4.08527,2.77643 -6.70294,2.77643c-2.61767,0 -4.85198,-0.92548 -6.70294,-2.77643c-1.85096,-1.85096 -2.77643,-4.08527 -2.77643,-6.70294c0,-2.61767 0.92548,-4.85198 2.77643,-6.70294c1.85096,-1.85096 4.08527,-2.77643 6.70294,-2.77643c2.61767,0 4.85198,0.92548 6.70294,2.77643c1.85096,1.85096 2.77643,4.08527 2.77643,6.70294zM288.12529,221.68349c0,3.62443 -1.28142,6.71811 -3.84425,9.28104c-2.56293,2.56284 -5.65661,3.84425 -9.28104,3.84425c-3.62443,0 -6.71811,-1.28142 -9.28104,-3.84425c-2.56284,-2.56293 -3.84425,-5.65661 -3.84425,-9.28104c0,-3.62443 1.28142,-6.71811 3.84425,-9.28104c2.56293,-2.56284 5.65661,-3.84425 9.28104,-3.84425c3.62443,0 6.71811,1.28142 9.28104,3.84425c2.56284,2.56293 3.84425,5.65661 3.84425,9.28104zM311.45914,221.68349c0,2.61806 -0.92563,4.85271 -2.77688,6.70396c-1.85125,1.85125 -4.0859,2.77688 -6.70396,2.77688c-2.61806,0 -4.85271,-0.92563 -6.70396,-2.77688c-1.85125,-1.85125 -2.77688,-4.0859 -2.77688,-6.70396c0,-2.61806 0.92563,-4.85271 2.77688,-6.70396c1.85125,-1.85125 4.0859,-2.77688 6.70396,-2.77688c2.61806,0 4.85271,0.92563 6.70396,2.77688c1.85125,1.85125 2.77688,4.0859 2.77688,6.70396zM257.49961,221.68349c0,2.61767 -0.92548,4.85198 -2.77643,6.70294c-1.85096,1.85096 -4.08527,2.77643 -6.70294,2.77643c-2.61767,0 -4.85198,-0.92548 -6.70294,-2.77643c-1.85096,-1.85096 -2.77643,-4.08527 -2.77643,-6.70294c0,-2.61767 0.92548,-4.85198 2.77643,-6.70294c1.85096,-1.85096 4.08527,-2.77643 6.70294,-2.77643c2.61767,0 4.85198,0.92548 6.70294,2.77643c1.85096,1.85096 2.77643,4.08527 2.77643,6.70294zM234.16722,221.68349c0,3.88995 -1.94498,5.83492 -5.83492,5.83492c-3.88995,0 -5.83492,-1.94498 -5.83492,-5.83492c0,-3.88995 1.94498,-5.83492 5.83492,-5.83492c3.88995,0 5.83492,1.94498 5.83492,5.83492zM327.50117,221.68349c0,3.88898 -1.94449,5.83346 -5.83346,5.83346c-3.88898,0 -5.83346,-1.94449 -5.83346,-5.83346c0,-3.88898 1.94449,-5.83346 5.83346,-5.83346c3.88898,0 5.83346,1.94449 5.83346,5.83346z" data-paper-data="{&quot;isPathIcon&quot;:true}"></path></g></g></g></svg>